<?xml version="1.0" encoding="UTF-8"?>
<svg id="Ebene_1" xmlns="http://www.w3.org/2000/svg" xmlns:xlink="http://www.w3.org/1999/xlink" version="1.1" viewBox="0 0 141.42 55.28">
  <!-- Generator: Adobe Illustrator 29.8.1, SVG Export Plug-In . SVG Version: 2.1.1 Build 2)  -->
  <defs>
    <style>
      .st0 {
        fill: none;
      }

      .st1 {
        fill: #1d1d1b;
      }

      .st2 {
        clip-path: url(#clippath-1);
      }

      .st3 {
        clip-path: url(#clippath-3);
      }

      .st4 {
        clip-path: url(#clippath-4);
      }

      .st5 {
        clip-path: url(#clippath-2);
      }

      .st6 {
        clip-path: url(#clippath-5);
      }

      .st7 {
        fill: #fff;
      }

      .st8 {
        fill: url(#Unbenannter_Verlauf_37);
      }

      .st9 {
        fill: url(#Unbenannter_Verlauf_36);
      }

      .st10 {
        fill: url(#Unbenannter_Verlauf_38);
      }

      .st11 {
        clip-path: url(#clippath);
      }
    </style>
    <clipPath id="clippath">
      <rect class="st0" width="141.42" height="55.28"/>
    </clipPath>
    <clipPath id="clippath-1">
      <rect class="st0" width="141.42" height="55.28"/>
    </clipPath>
    <linearGradient id="Unbenannter_Verlauf_36" data-name="Unbenannter Verlauf 36" x1="0" y1="147.28" x2="1" y2="147.28" gradientTransform="translate(139.15 -20131.12) rotate(-180) scale(136.88 -136.88)" gradientUnits="userSpaceOnUse">
      <stop offset="0" stop-color="#a4875d"/>
      <stop offset="0" stop-color="#a4875d"/>
      <stop offset=".05" stop-color="#a6895f"/>
      <stop offset=".09" stop-color="#b09265"/>
      <stop offset=".12" stop-color="#c0a170"/>
      <stop offset=".15" stop-color="#d7b77f"/>
      <stop offset=".17" stop-color="#e8c78b"/>
      <stop offset=".18" stop-color="#e4c388"/>
      <stop offset=".22" stop-color="#c7a976"/>
      <stop offset=".28" stop-color="#b19567"/>
      <stop offset=".33" stop-color="#a2875d"/>
      <stop offset=".4" stop-color="#987e57"/>
      <stop offset=".49" stop-color="#967c56"/>
      <stop offset=".54" stop-color="#987e57"/>
      <stop offset=".58" stop-color="#a2875e"/>
      <stop offset=".62" stop-color="#b29568"/>
      <stop offset=".66" stop-color="#c8aa76"/>
      <stop offset=".69" stop-color="#e5c489"/>
      <stop offset=".69" stop-color="#e8c78b"/>
      <stop offset=".69" stop-color="#e3c287"/>
      <stop offset=".73" stop-color="#c7a975"/>
      <stop offset=".77" stop-color="#b19567"/>
      <stop offset=".81" stop-color="#a2875d"/>
      <stop offset=".87" stop-color="#997f57"/>
      <stop offset=".94" stop-color="#977d56"/>
      <stop offset="1" stop-color="#977d56"/>
    </linearGradient>
    <clipPath id="clippath-2">
      <path class="st0" d="M3.54,48.96V6.32l2.48-2.48h129.38l2.48,2.48v42.64l-2.48,2.48H6.02l-2.48-2.48ZM5.53,2.64l-3.18,3.18v43.63l3.18,3.18h130.37l3.18-3.18V5.82l-3.18-3.18H5.53Z"/>
    </clipPath>
    <linearGradient id="Unbenannter_Verlauf_37" data-name="Unbenannter Verlauf 37" x1="0" y1="147.28" x2="1" y2="147.28" gradientTransform="translate(2.35 20135.48) scale(136.53 -136.53)" gradientUnits="userSpaceOnUse">
      <stop offset="0" stop-color="#e8c78b"/>
      <stop offset=".01" stop-color="#e8c78b"/>
      <stop offset=".32" stop-color="#a4875d"/>
      <stop offset=".49" stop-color="#c59f67"/>
      <stop offset=".73" stop-color="#977d56"/>
      <stop offset=".97" stop-color="#e8c78b"/>
      <stop offset="1" stop-color="#e8c78b"/>
    </linearGradient>
    <clipPath id="clippath-3">
      <rect class="st0" width="141.42" height="55.28"/>
    </clipPath>
    <clipPath id="clippath-4">
      <rect class="st0" x="39.61" y="34.82" width="95.22" height=".42"/>
    </clipPath>
    <linearGradient id="Unbenannter_Verlauf_38" data-name="Unbenannter Verlauf 38" x1="0" y1="147.28" x2="1" y2="147.28" gradientTransform="translate(39.61 14059.2) scale(95.22 -95.22)" gradientUnits="userSpaceOnUse">
      <stop offset="0" stop-color="#977d56"/>
      <stop offset=".21" stop-color="#e8c78b"/>
      <stop offset=".51" stop-color="#c59f67"/>
      <stop offset=".79" stop-color="#e8c78b"/>
      <stop offset="1" stop-color="#a4875d"/>
    </linearGradient>
    <clipPath id="clippath-5">
      <rect class="st0" width="141.42" height="55.28"/>
    </clipPath>
  </defs>
  <g class="st11">
    <g class="st2">
      <rect class="st9" x="2.27" y="-42.93" width="136.88" height="141.13" transform="translate(2.27 60.5) rotate(-47)"/>
    </g>
    <g class="st5">
      <rect class="st8" x="2.35" y="2.64" width="136.73" height="49.99"/>
    </g>
    <g class="st3">
      <path class="st7" d="M36.41,11.04H7.74c-.54,0-.98-.44-.98-.98s.44-.98.98-.98h28.68c.54,0,.98.44.98.98s-.44.98-.98.98"/>
      <path class="st7" d="M33.56,15.55H10.89c-.54,0-.98-.44-.98-.98s.44-.98.98-.98h22.67c.54,0,.98.44.98.98s-.44.98-.98.98"/>
      <path class="st7" d="M18.06,47.08v-28.77c0-.54-.44-.98-.98-.98s-.98.44-.98.98v27.99c.63.31,1.28.58,1.95.78"/>
      <path class="st7" d="M23.05,47.64v-29.34c0-.54-.44-.98-.98-.98s-.98.44-.98.98v29.33c.32.02.65.05.98.05s.65-.02.98-.04"/>
      <path class="st7" d="M28.25,46.2v-27.9c0-.54-.44-.98-.98-.98s-.98.44-.98.98v28.71c.68-.22,1.33-.49,1.95-.81"/>
      <path class="st7" d="M14.9,22.48c-3.83,2.42-6.4,6.68-6.4,11.54s2.56,9.12,6.4,11.54v-2.38c-2.7-2.15-4.44-5.45-4.44-9.16s1.74-7.02,4.44-9.16v-2.38ZM35.81,34.03c0-4.84-2.54-9.09-6.35-11.51v2.39c2.68,2.15,4.39,5.44,4.39,9.13s-1.72,6.98-4.39,9.13v2.39c3.81-2.43,6.35-6.68,6.35-11.52"/>
    </g>
    <g class="st4">
      <rect class="st10" x="39.61" y="34.82" width="95.22" height=".42"/>
    </g>
    <g>
      <path class="st7" d="M46.84,14.8s-.01.09-.01.12c-.01.02-.01.04-.01.05l-.31.06c-.09.09-.12.26-.12,1.32v1.52c-.69.2-1.76.35-2.52.35-2.36,0-3.96-1.63-3.96-4.09,0-2.61,1.92-4.19,3.93-4.19.64,0,1.87.11,2.46.21l.09.09c0,.59-.04,1.17-.07,1.66l-.07.81h-.15c-.12-.35-.26-.69-.4-1-.24-.54-.55-1.13-.83-1.42-.26-.1-.72-.16-1.01-.16-1.38,0-2.03,1.65-2.03,3.85,0,2.04.71,4.04,2.19,4.04.19,0,.4-.01.55-.02l.26-.04-.05-.89v-.46c0-1.3-.02-1.45-.17-1.56l-.62-.09s-.01-.02-.01-.05c-.01-.01-.01-.06-.01-.12h2.92Z"/>
      <path class="st7" d="M49.77,16.24c0,1.33.11,1.58.56,1.62h.57c.62-.04.97-.39,2.23-2.71h.1c-.04.86-.1,1.57-.15,2.08-.04.3-.06.57-.1.82h-5.75c0-.06,0-.11.01-.12,0-.01,0-.04.01-.05l.54-.09c.12-.1.17-.27.17-1.56v-4.3c0-1.28-.05-1.46-.17-1.56l-.54-.09s-.01-.04-.01-.05c-.01-.01-.01-.06-.01-.12h3.64s-.01.09-.01.12c-.01.01-.01.02-.01.04l-.92.1c-.12.1-.17.27-.17,1.56v4.3Z"/>
      <path class="st7" d="M56.24,10.39c-.15.11-.17.26-.17,1.56v4.3c0,1.3.02,1.45.17,1.56l.6.09s0,.04.01.05c0,.04.01.07.01.12h-3.39c0-.06,0-.11.01-.12,0-.01,0-.04.01-.05l.6-.09c.15-.11.17-.26.17-1.56v-4.3c0-1.3-.02-1.45-.17-1.56l-.6-.09s-.01-.04-.01-.05c-.01-.01-.01-.06-.01-.12h3.39c0,.06-.01.09-.01.12-.01.01-.01.04-.01.05l-.6.09Z"/>
      <path class="st7" d="M66.47,10.19l.07.06c.05.5.11,1.2.12,2.14h-.16c-.4-.88-.92-1.62-1.46-2.13-.29-.09-.6-.12-.96-.12-.9,0-1.5.46-1.5,1.31,0,.75.42,1.13,1.98,1.76,1.55.66,2.31,1.22,2.31,2.52,0,1.58-1.23,2.51-2.92,2.51-.71,0-1.62-.1-2.47-.26-.09-.71-.19-1.38-.2-2.47h.16c.44,1.02.86,1.6,1.48,2.39.36.14.67.15,1.02.15.96,0,1.58-.51,1.58-1.56,0-.85-.65-1.23-1.92-1.73-1.71-.67-2.34-1.36-2.34-2.46,0-1.36,1.3-2.34,2.81-2.34.7,0,1.84.14,2.38.24Z"/>
      <path class="st7" d="M67.22,12.82c.04-.93.06-1.61.1-2.07l.07-.7.56.04c.34.04.72.04,1.06.04h3.34c.34,0,.72,0,1.06-.04l.56-.04.06.7c.04.46.07,1.13.11,2.07l-.17.02c-.77-1.73-1.04-2.18-1.47-2.52h-.76c-.12.16-.16.31-.16,1.62v4.3c0,1.3.02,1.45.17,1.56l.9.09s0,.04.01.05c0,.04.01.07.01.12h-3.99c0-.06,0-.11.01-.12,0-.01,0-.04.01-.05l.9-.09c.15-.11.17-.26.17-1.56v-4.3c0-1.3-.05-1.47-.17-1.62h-.75c-.42.32-.71.79-1.48,2.52l-.16-.02Z"/>
      <path class="st7" d="M80.71,12.36c0-1.03-.12-1.77-.44-1.92l-.84-.15s-.01-.03-.01-.04c-.01-.01-.01-.06-.01-.12h2.31c0,.06-.01.09-.01.12-.01.01-.01.02-.01.04l-.5.16c-.16.19-.26.86-.26,1.91v2.85c0,1.97-.67,3.03-2.72,3.03s-3.18-.79-3.18-2.95v-3.34c0-1.28-.06-1.42-.16-1.56l-.51-.09s-.01-.04-.01-.05c-.01-.01-.01-.06-.01-.12h3.32c0,.06-.01.09-.01.12-.01.01-.01.04-.01.05l-.65.09c-.14.14-.16.22-.16,1.56v2.9c0,1.98.26,3.13,1.76,3.13s2.13-.92,2.13-2.75v-2.87Z"/>
      <path class="st7" d="M85.67,18.06h-3.62c0-.06,0-.11.01-.12,0-.01,0-.04.01-.05l.55-.09c.12-.1.17-.27.17-1.56v-4.3c0-1.28-.05-1.46-.17-1.56l-.55-.09s-.01-.04-.01-.05c-.01-.01-.01-.06-.01-.12h3.32c2.11,0,4.18,1.01,4.18,3.7s-1.93,4.24-3.88,4.24ZM85.37,10.34l-.79-.02v5.92c0,1.25.14,1.6.79,1.63h.31c1.43,0,1.96-1.42,1.96-3.65,0-2.53-.76-3.84-2.27-3.88Z"/>
      <path class="st7" d="M92.76,10.39c-.15.11-.17.26-.17,1.56v4.3c0,1.3.02,1.45.17,1.56l.6.09s0,.04.01.05c0,.04.01.07.01.12h-3.39c0-.06,0-.11.01-.12,0-.01,0-.04.01-.05l.6-.09c.15-.11.17-.26.17-1.56v-4.3c0-1.3-.03-1.45-.17-1.56l-.6-.09s-.01-.04-.01-.05c-.01-.01-.01-.06-.01-.12h3.39c0,.06-.01.09-.01.12-.01.01-.01.04-.01.05l-.6.09Z"/>
      <path class="st7" d="M100.26,16.24c0,1.33.11,1.58.56,1.62h.57c.62-.04.97-.39,2.23-2.71h.1c-.04.86-.1,1.57-.15,2.08-.04.3-.06.57-.1.82h-5.75c0-.06,0-.11.01-.12,0-.01,0-.04.01-.05l.54-.09c.12-.1.17-.27.17-1.56v-4.3c0-1.28-.05-1.46-.17-1.56l-.54-.09s-.01-.04-.01-.05c-.01-.01-.01-.06-.01-.12h3.64s-.01.09-.01.12c-.01.01-.01.02-.01.04l-.92.1c-.12.1-.17.27-.17,1.56v4.3Z"/>
      <path class="st7" d="M108.77,12.78l-.03.51c-.01.29-.01.61-.01.81,0,.24,0,.6.01.91l.03.56h-.12s-.36-1.16-.36-1.16c-.16-.2-.4-.27-1.05-.29h-.66s0,1.9,0,1.9c0,1.45.11,1.81.56,1.84h.57c.85,0,1.21-.4,2.37-2.39h.1c-.04.57-.09,1.21-.15,1.72-.04.3-.08.59-.12.87h-5.9c0-.06,0-.11.01-.12,0-.01,0-.04.01-.05l.57-.09c.15-.11.17-.26.17-1.56v-4.3c0-1.3-.03-1.45-.17-1.56l-.56-.09s-.01-.04-.01-.05c-.01-.01-.01-.06-.01-.12h5.93l.08.09c-.04.49-.06,1.02-.11,1.46-.04.26-.06.51-.09.75h-.11c-.47-1.13-.81-1.63-1.2-1.99l-.62-.05c-.39-.04-.86-.06-1.32-.06v3.63h.66c.66-.02.91-.11,1.07-.3l.34-.87h.12Z"/>
      <path class="st7" d="M117.64,14.8s-.01.09-.01.12c-.01.02-.01.04-.01.05l-.31.06c-.09.09-.12.26-.12,1.32v1.52c-.69.2-1.76.35-2.52.35-2.36,0-3.96-1.63-3.96-4.09,0-2.61,1.92-4.19,3.93-4.19.64,0,1.87.11,2.46.21l.09.09c0,.59-.04,1.17-.08,1.66l-.08.81h-.15c-.12-.35-.26-.69-.4-1-.24-.54-.55-1.13-.84-1.42-.26-.1-.72-.16-1.01-.16-1.38,0-2.03,1.65-2.03,3.85,0,2.04.71,4.04,2.19,4.04.19,0,.4-.01.55-.02l.26-.04-.05-.89v-.46c0-1.3-.02-1.45-.17-1.56l-.62-.09s-.01-.02-.01-.05c-.01-.01-.01-.06-.01-.12h2.92Z"/>
      <path class="st7" d="M121.84,15.6h-2.71c-.09.22-.15.45-.21.66-.1.39-.2.82-.2,1.12,0,.14.02.25.09.34l.85.19s0,.02.01.04c0,.04.01.07.01.12h-2.23c0-.06,0-.11.01-.12,0-.01,0-.02.01-.04l.34-.1c.19-.16.56-.84.85-1.62l1.53-4.49c.14-.4.22-.85.27-1.2l1.35-.52,2.16,6.32c.37,1.12.56,1.41.66,1.51l.5.1s0,.02.01.04c0,.04.01.07.01.12h-3.5c0-.06,0-.11.01-.12,0-.01,0-.02.01-.04l.61-.1c.06-.04.1-.11.1-.2,0-.19-.15-.76-.27-1.18l-.27-.82ZM119.21,15.36h2.56l-1.28-3.83-1.27,3.83Z"/>
      <path class="st7" d="M127.65,16.24c0,1.33.11,1.58.56,1.62h.57c.62-.04.97-.39,2.23-2.71h.1c-.04.86-.1,1.57-.15,2.08-.04.3-.06.57-.1.82h-5.75c0-.06,0-.11.01-.12,0-.01,0-.04.01-.05l.54-.09c.12-.1.17-.27.17-1.56v-4.3c0-1.28-.05-1.46-.17-1.56l-.54-.09s-.01-.04-.01-.05c-.01-.01-.01-.06-.01-.12h3.64s-.01.09-.01.12c-.01.01-.01.02-.01.04l-.92.1c-.12.1-.17.27-.17,1.56v4.3Z"/>
      <path class="st7" d="M134.14,10.39c-.15.11-.17.26-.17,1.56v4.3c0,1.3.02,1.45.17,1.56l.6.09s0,.04.01.05c0,.04.01.07.01.12h-3.39c0-.06,0-.11.01-.12,0-.01,0-.04.01-.05l.6-.09c.15-.11.17-.26.17-1.56v-4.3c0-1.3-.03-1.45-.17-1.56l-.6-.09s-.01-.04-.01-.05c-.01-.01-.01-.06-.01-.12h3.39c0,.06-.01.09-.01.12-.01.01-.01.04-.01.05l-.6.09Z"/>
    </g>
    <g>
      <path class="st7" d="M43.53,31.04h-3.62c0-.06,0-.11.01-.12,0-.01,0-.04.01-.05l.55-.09c.12-.1.17-.27.17-1.56v-4.3c0-1.28-.05-1.46-.17-1.56l-.55-.09s-.01-.04-.01-.05c-.01-.01-.01-.06-.01-.12h3.32c2.11,0,4.18,1.01,4.18,3.7s-1.93,4.24-3.88,4.24ZM43.24,23.31l-.79-.02v5.92c0,1.25.14,1.6.79,1.63h.31c1.43,0,1.96-1.42,1.96-3.65,0-2.53-.76-3.84-2.27-3.88Z"/>
      <path class="st7" d="M53.01,25.75l-.02.51c-.01.29-.01.61-.01.81,0,.24,0,.6.01.91l.02.56h-.12s-.36-1.16-.36-1.16c-.16-.2-.4-.27-1.05-.29h-.66s0,1.9,0,1.9c0,1.45.11,1.81.56,1.84h.57c.85,0,1.21-.4,2.37-2.39h.1c-.04.57-.09,1.21-.15,1.72-.04.3-.07.59-.12.87h-5.9c0-.06,0-.11.01-.12,0-.01,0-.04.01-.05l.57-.09c.15-.11.17-.26.17-1.56v-4.3c0-1.3-.02-1.45-.17-1.56l-.56-.09s-.01-.04-.01-.05c-.01-.01-.01-.06-.01-.12h5.93l.07.09c-.04.49-.06,1.02-.11,1.46-.04.26-.06.51-.09.75h-.11c-.47-1.13-.81-1.63-1.2-1.99l-.62-.05c-.39-.04-.86-.06-1.32-.06v3.63h.66c.66-.02.91-.11,1.07-.3l.34-.87h.12Z"/>
      <path class="st7" d="M57.88,29.22c0,1.33.11,1.58.56,1.62h.57c.62-.04.97-.39,2.23-2.71h.1c-.04.86-.1,1.57-.15,2.08-.04.3-.06.57-.1.82h-5.75c0-.06,0-.11.01-.12,0-.01,0-.04.01-.05l.54-.09c.12-.1.17-.27.17-1.56v-4.3c0-1.28-.05-1.46-.17-1.56l-.54-.09s-.01-.04-.01-.05c-.01-.01-.01-.06-.01-.12h3.64s-.01.09-.01.12c-.01.01-.01.02-.01.04l-.92.1c-.12.1-.17.27-.17,1.56v4.3Z"/>
      <path class="st7" d="M64.54,29.22c0,1.33.11,1.58.56,1.62h.57c.62-.04.97-.39,2.23-2.71h.1c-.04.86-.1,1.57-.15,2.08-.04.3-.06.57-.1.82h-5.75c0-.06,0-.11.01-.12,0-.01,0-.04.01-.05l.54-.09c.12-.1.17-.27.17-1.56v-4.3c0-1.28-.05-1.46-.17-1.56l-.54-.09s-.01-.04-.01-.05c-.01-.01-.01-.06-.01-.12h3.64s-.01.09-.01.12c-.01.01-.01.02-.01.04l-.92.1c-.12.1-.17.27-.17,1.56v4.3Z"/>
      <path class="st7" d="M68.93,26.11c.56-.36.9-.74.93-1.07,0-.26-.14-.36-.6-.6-.35-.16-.54-.26-.54-.51,0-.5.39-1.03.89-1.03.55,0,1.15.45,1.15,1.08,0,.84-.77,1.65-1.77,2.24l-.06-.11Z"/>
      <path class="st7" d="M75.33,28.57h-2.71c-.09.22-.15.45-.21.66-.1.39-.2.82-.2,1.12,0,.14.02.25.09.34l.85.19s0,.02.01.04c0,.04.01.07.01.12h-2.23c0-.06,0-.11.01-.12,0-.01,0-.02.01-.04l.34-.1c.19-.16.56-.84.85-1.62l1.53-4.49c.14-.4.22-.85.27-1.2l1.35-.52,2.16,6.32c.37,1.12.56,1.41.66,1.51l.5.1s0,.02.01.04c0,.04.01.07.01.12h-3.5c0-.06,0-.11.01-.12,0-.01,0-.02.01-.04l.61-.1c.06-.04.1-.11.1-.2,0-.19-.15-.76-.27-1.18l-.27-.82ZM72.7,28.33h2.56l-1.28-3.83-1.27,3.83Z"/>
      <path class="st7" d="M85.68,27.42c0,.54.03,1.45.03,2.21l.02,1.4-.29.1-5.34-6.54.17,4.46c.04,1.16.1,1.45.25,1.53l1.06.3s0,.04.01.05c0,.04.01.06.01.11h-2.8c0-.06,0-.11.01-.12,0-.01,0-.02.01-.04l.74-.25c.17-.14.26-.41.3-1.58l.07-4.65c-.46-.59-.88-1.01-1.03-1.1l-.19-.04s-.01-.03-.01-.04c-.01-.01-.01-.06-.01-.12h2.42l4.43,5.57-.15-3.78c-.04-1.06-.16-1.22-.36-1.38l-1.05-.25s-.01-.03-.01-.04c-.01-.01-.01-.06-.01-.12h2.54s-.01.09-.01.12c-.01.01-.01.02-.01.04l-.57.2c-.16.16-.22.44-.22,2.01v1.96Z"/>
      <path class="st7" d="M94,27.42c0,.54.03,1.45.03,2.21l.02,1.4-.29.1-5.34-6.54.17,4.46c.04,1.16.1,1.45.25,1.53l1.06.3s0,.04.01.05c0,.04.01.06.01.11h-2.8c0-.06,0-.11.01-.12,0-.01,0-.02.01-.04l.74-.25c.17-.14.26-.41.3-1.58l.07-4.65c-.46-.59-.88-1.01-1.03-1.1l-.19-.04s-.01-.03-.01-.04c-.01-.01-.01-.06-.01-.12h2.42l4.43,5.57-.15-3.78c-.04-1.06-.16-1.22-.36-1.38l-1.05-.25s-.01-.03-.01-.04c-.01-.01-.01-.06-.01-.12h2.54s-.01.09-.01.12c-.01.01-.01.02-.01.04l-.57.2c-.16.16-.22.44-.22,2.01v1.96Z"/>
      <path class="st7" d="M99.39,31.21c-1.96,0-3.83-1.45-3.83-4.14s1.97-4.15,3.83-4.15c1.98,0,3.8,1.46,3.8,4,0,2.73-1.95,4.29-3.8,4.29ZM99.39,23.1c-1.43,0-1.93,2.11-1.93,3.95,0,1.66.49,3.96,1.93,3.96s1.9-2.23,1.9-4.08c0-1.75-.45-3.84-1.9-3.84Z"/>
      <path class="st7" d="M112.93,28.41c-.06.75-.3,2.09-.44,2.63h-3.64c-.7,0-1.2.01-1.5.05l-.04-.16c.3-.26,1.16-1.17,1.7-1.88,1.07-1.37,1.58-2.18,1.58-3.24,0-.84-.57-1.4-1.41-1.4-.65,0-1.11.26-1.52.6l-.06-.11c.3-1.03,1.18-1.9,2.44-1.9s2.37.8,2.37,2.08c0,1.12-.59,1.81-3.02,3.84l-.55.54h3.2c.21-.08.37-.25.79-1.1l.09.05Z"/>
      <path class="st7" d="M117.2,31.16c-1.36,0-2.92-1.33-2.92-4.1s1.53-4.06,2.93-4.06,2.95,1.27,2.95,4.06-1.62,4.1-2.97,4.1ZM117.2,23.17c-.86,0-1.06,1.84-1.06,3.89s.15,3.94,1.08,3.94c.81,0,1.08-1.87,1.08-3.94s-.16-3.89-1.11-3.89Z"/>
      <path class="st7" d="M127.15,28.41c-.06.75-.3,2.09-.44,2.63h-3.64c-.7,0-1.2.01-1.5.05l-.04-.16c.3-.26,1.16-1.17,1.7-1.88,1.07-1.37,1.58-2.18,1.58-3.24,0-.84-.57-1.4-1.41-1.4-.65,0-1.11.26-1.52.6l-.06-.11c.3-1.03,1.18-1.9,2.44-1.9s2.37.8,2.37,2.08c0,1.12-.59,1.81-3.02,3.84l-.55.54h3.2c.21-.08.37-.25.79-1.1l.09.05Z"/>
      <path class="st7" d="M131.49,31.16c-1.58,0-2.94-1.11-2.94-3.1,0-2.83,1.87-4.79,4.76-5.09l.03.04.02.09c-1.82.62-2.67,2.03-2.93,3.6.3-.26.92-.59,1.53-.59,1.36,0,2.26,1,2.26,2.36,0,1.63-1.28,2.69-2.73,2.69ZM131.25,26.6c-.31,0-.6.1-.83.24-.03.12-.08.69-.08.9,0,1.55.36,3.27,1.17,3.27.66,0,.92-1.1.92-2.16,0-1.21-.49-2.24-1.18-2.24Z"/>
    </g>
    <g class="st6">
      <path class="st1" d="M91.48,43.85c-.06-.34-.22-.53-.5-.53-.23,0-.38.12-.38.34,0,.66,1.65.93,1.65,2.18,0,.75-.52,1.14-1.23,1.14-.77,0-1.21-.44-1.34-1.18l.77-.21c.05.35.18.67.58.67.23,0,.39-.13.39-.37,0-.73-1.65-1.01-1.65-2.16,0-.67.52-1.13,1.18-1.13s1.15.46,1.29,1.12l-.75.13Z"/>
      <path class="st1" d="M93.07,46.04v-2.63h-.49v-.72h.49v-1.14h.88v1.14h.59v.72h-.59v2.43c0,.22.09.35.3.35h.29v.75c-.12.03-.22.05-.44.05-.66,0-1.03-.31-1.03-.95"/>
      <path class="st1" d="M96.83,44.76c-.8.46-1,.75-1,1.12,0,.28.14.39.41.39.24,0,.44-.18.59-.39v-1.11ZM95.02,43.92c.05-.86.59-1.32,1.41-1.32s1.28.38,1.28,1.15v2.71c0,.13.03.31.05.45h-.84c0-.12-.04-.23-.05-.33-.33.27-.6.41-1.03.41-.6,0-.9-.41-.9-.95,0-.93.61-1.44,1.88-1.92v-.25c0-.35-.14-.54-.43-.54-.4,0-.49.24-.5.6h-.88Z"/>
      <path class="st1" d="M98.74,46.04v-2.63h-.49v-.72h.49v-1.14h.88v1.14h.59v.72h-.59v2.43c0,.22.09.35.3.35h.29v.75c-.12.03-.22.05-.44.05-.66,0-1.03-.31-1.03-.95"/>
      <path class="st1" d="M100.79,46.91h.88v-4.22h-.88v4.22ZM100.79,42.33h.88v-.8h-.88v.8Z"/>
      <path class="st1" d="M104.13,43.85c-.06-.34-.22-.53-.5-.53-.23,0-.39.12-.39.34,0,.66,1.65.93,1.65,2.18,0,.75-.52,1.14-1.23,1.14-.77,0-1.21-.44-1.34-1.18l.77-.21c.05.35.18.67.58.67.23,0,.39-.13.39-.37,0-.73-1.65-1.01-1.65-2.16,0-.67.52-1.13,1.18-1.13s1.15.46,1.29,1.12l-.75.13Z"/>
      <path class="st1" d="M105.72,46.04v-2.63h-.49v-.72h.49v-1.14h.88v1.14h.59v.72h-.59v2.43c0,.22.09.35.3.35h.29v.75c-.12.03-.22.05-.44.05-.66,0-1.03-.31-1.03-.95"/>
      <path class="st1" d="M109.49,44.76c-.8.46-1,.75-1,1.12,0,.28.14.39.41.39.24,0,.44-.18.59-.39v-1.11ZM107.67,43.92c.05-.86.59-1.32,1.41-1.32s1.28.38,1.28,1.15v2.71c0,.13.03.31.05.45h-.84c0-.12-.04-.23-.05-.33-.33.27-.61.41-1.03.41-.6,0-.9-.41-.9-.95,0-.93.61-1.44,1.88-1.92v-.25c0-.35-.14-.54-.43-.54-.4,0-.49.24-.5.6h-.88Z"/>
      <path class="st1" d="M116.3,43.54c-.44.23-.76.69-.76.69-.08.12-.17.25-.2.29-.03.04-.06.08-.07.09,0,0-.04.06-.06.09-.02.03-.1.15-.19.27,0,0-.49.71-1.19,1.08-.73.38-1.68.35-1.76.35v.39c0,.1.08.19.19.19h5.07c.11,0,.19-.09.19-.19v-3.46s-.03,0-.05,0c0,0-.82.02-1.17.2M117.33,41.54h-5.07c-.11,0-.19.09-.19.19v3.45s.02,0,.03,0c0,0,.82-.02,1.17-.2.44-.23.76-.69.76-.69.08-.12.17-.25.2-.29.03-.04.06-.08.07-.09,0,0,.04-.06.06-.09.02-.03.1-.15.19-.27,0,0,.49-.71,1.19-1.08.76-.4,1.76-.35,1.76-.35,0,0,.01,0,.02,0v-.39c0-.1-.08-.19-.19-.19"/>
      <path class="st1" d="M55.99,38.3s0-.01,0-.04h-.66s0,.04,0,.04l.1.02s.03.06.03.28v.74c0,.22,0,.26-.03.28l-.1.02s0,.01,0,.04h.66s0-.04,0-.04l-.1-.02s-.03-.05-.03-.28v-.74c0-.22,0-.26.03-.28l.1-.02ZM56.54,39.62s-.02-.03-.02-.16v-.94c0-.17.01-.4.01-.4h-.04c-.21,0-.42.07-.42.07,0,0,0,.01,0,.03l.06.02s.02.04.02.19v1.04c0,.14,0,.15-.02.16l-.06.02s0,.02,0,.04h.54s0-.04,0-.04l-.06-.02ZM57.48,38.22c-.28,0-.53.18-.53.44,0,.21.13.34.42.45.23.08.35.15.35.29,0,.17-.11.25-.27.25-.06,0-.12,0-.18-.03-.11-.14-.2-.27-.28-.43h-.04c0,.17.01.28.04.46.16.03.33.04.46.04.31,0,.55-.17.55-.47,0-.25-.14-.35-.41-.46-.29-.12-.37-.17-.37-.3s.1-.21.24-.21c.06,0,.11,0,.17.02.11.1.2.22.27.38h.04c0-.15-.01-.31-.02-.4h-.01c-.09-.03-.31-.05-.44-.05M58.07,39.14c0,.35.25.57.52.57s.55-.23.55-.58-.23-.57-.52-.57c-.31,0-.56.26-.56.58M58.45,39.1c0-.24.03-.5.15-.5.13,0,.16.28.16.54,0,.24-.01.51-.14.51-.14,0-.17-.28-.17-.55M59.66,39.62s-.02-.03-.02-.16v-.94c0-.17.01-.4.01-.4h-.04c-.21,0-.42.07-.42.07,0,0,0,.01,0,.03l.06.02s.02.04.02.19v1.04c0,.14,0,.15-.02.16l-.06.02s0,.02,0,.04h.54s0-.04,0-.04l-.06-.02ZM59.75,39.16c0,.32.22.55.51.55.23,0,.35-.1.43-.27v-.02c-.08.02-.16.03-.26.03-.22,0-.33-.2-.33-.41,0-.02,0-.04,0-.04.18,0,.34.01.51.01.02,0,.04,0,.05-.01.02-.02.02-.06.02-.12,0-.23-.21-.32-.44-.32-.26,0-.5.24-.5.6M60.1,38.94c0-.21.05-.35.13-.35.07,0,.11.07.11.19,0,.1-.01.16-.04.16h-.18s-.02,0-.02,0"/>
      <path class="st1" d="M61.34,43.78l-.52.93h.52v-.93ZM61.34,41.88h.07v2.91h-1.68v-.04c.34-.48.51-.77.8-1.28.35-.61.52-.96.8-1.6h0ZM63.54,44.79h-.82v-4.12c-.27.06-.43.08-.72.09h-.05c-.23,0-.37-.01-.6-.06-.17.89-.34,1.4-.76,2.22-.39.76-.66,1.17-1.24,1.81v.31h2.06v.7c-.05.14-.12.22-.24.3-.15.11-.28.12-.45.12v.19h2.8v-.23h-.22c-.16,0-.27,0-.4-.11-.11-.08-.16-.17-.18-.3v-.7h.82v-.23ZM62.75,40.58h.05s.73.7.73.7v3.33l.09.11h0s.04.05.04.05l.63.77v.3h-.58v.31l.56.72v.34h-2.82l-.8-.78v-.33h.04c.2,0,.31,0,.45-.11.06-.05.11-.09.15-.14h-1.29l-.71-.74h0v-.41h.01c.57-.65.85-1.06,1.24-1.82.42-.83.59-1.33.76-2.24v-.04s.04,0,.04,0c.25.05.39.07.62.07h.05c.29,0,.46-.02.75-.09M58.6,44.79h-.2c-.02.13-.07.21-.18.3-.13.1-.23.1-.4.09h-1.05l.12-.07c1.06-.58,1.68-1.45,1.69-2.41,0-.7-.19-1.29-.57-1.66-.29-.29-.68-.44-1.14-.44h-.02c-.38,0-.7.14-.96.4-.43.43-.57,1.08-.56,1.55.01.7.47,1.13.89,1.13.37,0,.62-.31.68-.83.06-.53-.06-.78-.17-.9-.08-.08-.18-.13-.29-.13-.19,0-.4.13-.57.34l-.03.05-.03-.05c-.11-.2-.07-.58.09-.85.09-.15.27-.34.57-.34h.02c.14,0,.27.06.37.17.41.47.3,1.81.19,2.57-.13.98-.75,1.81-1.8,2.38v.26h3.36v-1.57ZM58.75,44.84l.65.73v1.68h-3.63l-.62-.81v-.38h.02c.73-.41,1.25-.92,1.54-1.53-.42-.16-.7-.4-.99-.8-.1-.14-.19-.28-.25-.41-.13-.2-.22-.46-.23-.76,0-.48.14-1.16.58-1.6.27-.28.61-.42,1.01-.42h.02c.15,0,.3.02.43.05.97.09,1.67.64,1.93,1.52.26.88.32,1.86-.47,2.74M67.4,40.83c-.23,0-.42.2-.42.44v4.49c0,.24.19.44.42.44s.42-.2.42-.44v-4.49c0-.24-.19-.44-.42-.44M69.36,43.53c0-1.67-.88-3.03-1.97-3.03s-1.97,1.36-1.97,3.03.88,3.03,1.97,3.03,1.97-1.36,1.97-3.03M68.18,47.28c-.95,0-1.78-.63-2.29-1.63-.34-.55-.55-1.3-.55-2.12,0-1.71.92-3.1,2.04-3.1.22,0,.43.05.62.15,1.09.43,2.13,1.9,2.16,3.29.12,1.52-.56,3.42-1.98,3.42M72.07,40.92v2.39c.3,0,.51,0,.68-.13.15-.12.19-.28.21-.49v-1.13c-.02-.16-.05-.37-.18-.5-.16-.16-.45-.13-.71-.13M74.82,46.18h0c-.16,0-.28-.05-.38-.17-.12-.13-.12-.24-.11-.41v-1.14c-.03-.22-.09-.35-.24-.53-.16-.21-.3-.31-.56-.39l-.08-.03.08-.04c.58-.27.91-.61.89-1.49-.02-.83-.61-1.32-1.18-1.37h-3.09v.2s.04,0,.06,0c.2,0,.34.06.45.19.08.1.08.18.09.28,0,.04,0,.1.01.15v4s0,.05,0,.07c0,.14-.02.26-.12.4-.12.15-.25.22-.43.24v.18h2.42v-.19c-.2,0-.34-.07-.46-.23-.11-.15-.11-.28-.11-.44v-1.88h.11s.08,0,.08,0c.19,0,.4.01.53.14.13.13.16.32.18.47v1.42c0,.17.02.27.12.42.11.16.21.25.4.32h1.37v-.16ZM75.15,44.98v1.28l.42.57v.33h-1.33l-.85-.32v.29h-2.56l-.72-.73h0v-.32h.03c.18-.02.3-.08.41-.22.09-.11.1-.22.11-.36,0-.02,0-.05,0-.07v-3.77l-.61-.77v-.35h3.17c.12.01.24.04.35.08.84.19,1.45.84,1.54,1.71.07.67-.12,1.16-.64,1.62.21.15.31.26.44.48.12.2.17.32.21.55M79.22,44.77h-.14c-.03.38-.15.63-.43.9-.31.31-.62.44-1.04.44-.05,0-.1,0-.16,0h-.03v-2.5h.04c.07,0,.14,0,.2,0,.17,0,.3,0,.42.1.12.1.17.19.19.34v.49h.26v-1.99h-.2v.22c-.01.16-.06.27-.18.39-.15.16-.33.17-.51.17h-.09s-.06,0-.1,0h-.04v-2.45h.03c.4-.02.66.05.98.3.38.29.55.63.54,1.09h.23v-1.64h-3.68v.19c.19,0,.34.07.46.22.11.13.11.23.13.38v.06s0,4.04,0,4.04c0,.19-.05.33-.19.46-.11.11-.22.15-.37.17v.18h3.67v-1.55ZM78.29,44.62h-.07v1.29c.13-.07.25-.16.37-.27.1-.1.17-.19.23-.28-.11-.14-.39-.49-.53-.73M80.03,45.42v1.77h-3.81l-.74-.79v-.32h.04c.15,0,.25-.05.36-.15.13-.12.18-.23.17-.41v-3.88l-.59-.74v-.33h3.83l.74.79v1.79h-.39l-.73-.72s-.01-.45-.21-.61c-.21-.17-.45-.16-.45-.16v.81h.33l.78.88v1.46l.7.61Z"/>
    </g>
  </g>
</svg>